<svg width="335" height="92" viewBox="0 0 335 92" fill="none" xmlns="http://www.w3.org/2000/svg">
<path d="M3.35107 0L15.3994 10.9065V80.7851L3.35107 91.6916V0Z" fill="black"/>
<rect width="3.35717" height="91.6916" fill="black"/>
<path d="M23.0801 0L32.9471 11.9972V80.7851L23.0801 91.6916V0Z" fill="black"/>
<rect x="19.7207" width="3.35717" height="91.6916" fill="black"/>
<path d="M41.709 0L49.3947 11.9972V80.7851L41.709 91.6916V0Z" fill="black"/>
<rect x="38.3579" width="3.35717" height="91.6916" fill="black"/>
<path d="M102.401 0L90.3526 10.9065V80.7851L102.401 91.6916V0Z" fill="black"/>
<rect width="3.35717" height="91.6916" transform="matrix(-1 0 0 1 105.752 0)" fill="black"/>
<path d="M81.5684 0L71.7013 11.9972V80.7851L81.5684 91.6916V0Z" fill="black"/>
<rect width="3.35717" height="91.6916" transform="matrix(-1 0 0 1 84.9277 0)" fill="black"/>
<path d="M62.9365 0L55.2508 11.9972V80.7851L62.9365 91.6916V0Z" fill="black"/>
<rect width="3.35717" height="91.6916" transform="matrix(-1 0 0 1 66.2876 0)" fill="black"/>
<path d="M217.983 35.1789C217.983 47.9792 210.059 54.9889 195.811 54.9889H192.915L217.831 75.9419V76.3229H195.087L170.154 54.9889H153.346V76.3229H136.203V15.3688H195.811C210.059 15.3688 217.983 22.3785 217.983 35.1789ZM195.202 31.3692H153.346V38.9885H195.202C198.783 38.9885 200.459 37.998 200.459 35.1789C200.459 32.3597 198.783 31.3692 195.202 31.3692Z" fill="black"/>
<path d="M244.067 76.3229H226.923V15.3688H244.067V76.3229Z" fill="black"/>
<path d="M291.331 76.3229C266.873 76.3229 253.006 65.2749 253.006 45.8458C253.006 26.4167 266.873 15.3688 291.331 15.3688H334.745V31.3692H292.931C277.845 31.3692 270.531 36.017 270.531 45.8458C270.531 55.6747 277.845 60.3224 292.931 60.3224H317.678V52.73H303.951V38.9922H334.821V76.3229H291.331Z" fill="black"/>
</svg>
